<svg width="21" height="21" viewBox="0 0 21 21" fill="none" xmlns="http://www.w3.org/2000/svg">
<path d="M17.9162 3.08384L17.9162 3.08385L17.9093 3.07694C17.9116 3.07924 17.9139 3.08154 17.9162 3.08384Z" fill="#F8A911" stroke="black"/>
<path d="M7.84176 7.05981H8.74559V7.06111V7.0665V7.07189V7.07729V7.0827V7.0881V7.09351V7.09893V7.10434V7.10976V7.11519V7.12062V7.12605V7.13148V7.13692V7.14236V7.14781V7.15326V7.15871V7.16416V7.16962V7.17508V7.18055V7.18602V7.19149V7.19697V7.20244V7.20793V7.21341V7.2189V7.22439V7.22988V7.23538V7.24088V7.24638V7.25189V7.2574V7.26291V7.26843V7.27394V7.27946V7.28499V7.29051V7.29604V7.30157V7.30711V7.31265V7.31819V7.32373V7.32927V7.33482V7.34037V7.34593V7.35148V7.35704V7.3626V7.36816V7.37373V7.3793V7.38487V7.39044V7.39601V7.40159V7.40717V7.41275V7.41834V7.42393V7.42951V7.43511V7.4407V7.44629V7.45189V7.45749V7.46309V7.4687V7.4743V7.47991V7.48552V7.49113V7.49674V7.50236V7.50798V7.5136V7.51922V7.52484V7.53047V7.53609V7.54172V7.54735V7.55298V7.55862V7.56425V7.56989V7.57553V7.58116V7.58681V7.59245V7.59809V7.60374V7.60939V7.61504V7.62069V7.62634V7.63199V7.63764V7.6433V7.64896V7.65461V7.66027V7.66593V7.6716V7.67726V7.68292V7.68859V7.69425V7.69992V7.70559V7.71126V7.71693V7.7226V7.72827V7.73395V7.73962V7.7453V7.75097V7.75665V7.76233V7.768V7.77368V7.77936V7.78504V7.79072V7.79641V7.80209V7.80777V7.81346V7.81914V7.82482V7.83051V7.8362V7.84188V7.84757V7.85326V7.85894V7.86463V7.87032V7.87601V7.8817V7.88739V7.89308V7.89877V7.90446V7.91015V7.91584V7.92153V7.92722V7.93291V7.9386V7.94429V7.94998V7.95567V7.96136V7.96706V7.97275V7.97844V7.98413V7.98982V7.99551V8.0012V8.00689V8.01258V8.01827V8.02396V8.02964V8.03533V8.04102V8.04671V8.0524V8.05808V8.06377V8.06946V8.07514V8.08083V8.08651V8.09219V8.09788V8.10356V8.10924V8.11492V8.1206V8.12628V8.13196V8.13764V8.14332V8.14899V8.15467V8.16035V8.16602V8.17169V8.17737V8.18304V8.18871V8.19438V8.20004V8.20571V8.21138V8.21704V8.22271V8.22837V8.23403V8.23969V8.24535V8.25101V8.25667V8.26232V8.26798V8.27363V8.27928V8.28493V8.29058V8.29623V8.30187V8.30752V8.31316V8.3188V8.32444V8.33008V8.33572V8.34135V8.34698V8.35261V8.35824V8.36387V8.3695V8.37512V8.38075V8.38637V8.39199V8.39761V8.40322V8.40883V8.41445V8.42006V8.42566V8.43127V8.43687V8.44247V8.44807V8.45367V8.45927V8.46486V8.47045V8.47604V8.48163V8.48721V8.49279V8.49837V8.50395V8.50953V8.5151V8.52067V8.52624V8.5318V8.53737V8.54293V8.54848V8.55404V8.55959V8.56514V8.57069V8.57624V8.58178V8.58732V8.59286V8.59839V8.60392V8.60945V8.61498V8.6205V8.62602V8.63154V8.63706V8.64257V8.64808V8.65358V8.65909V8.66459V8.67008V8.67558V8.68107V8.68655V8.69204V8.69752V8.703V8.70847V8.71395V8.71942V8.72488V8.73034V8.7358V8.74126V8.74671V8.75216V8.7576V8.76305V8.76848V8.77392V8.77935V8.78478V8.7902V8.79562V8.80104V8.80645V8.81186V8.81727V8.82267V8.82686C8.58702 8.81832 8.427 8.80536 8.27399 8.78705C8.10752 8.76712 7.96217 8.74225 7.84176 8.71428V7.05981ZM13.2363 12.0105V13.9649H12.3271V12.1377V11.6187L11.8085 11.6381C10.9783 11.669 10.131 11.6686 9.26496 11.635L8.74559 11.6149V12.1347V13.9648H7.84176V12.0098V11.5537L7.38761 11.5119C7.08157 11.4837 6.77332 11.4515 6.46265 11.4151V10.874C9.20136 11.3018 11.8967 11.3145 14.5428 10.88V11.4188C14.26 11.4539 13.9752 11.4852 13.6884 11.5128L13.2363 11.5563V12.0105ZM12.3271 8.84032V7.05981H13.2363V7.06054V7.06544V7.07035V7.07526V7.08017V7.08508V7.08999V7.0949V7.09981V7.10472V7.10962V7.11453V7.11944V7.12435V7.12926V7.13417V7.13908V7.14399V7.1489V7.1538V7.15871V7.16362V7.16853V7.17344V7.17835V7.18326V7.18817V7.19308V7.19798V7.20289V7.2078V7.21271V7.21762V7.22253V7.22744V7.23235V7.23726V7.24216V7.24707V7.25198V7.25689V7.2618V7.26671V7.27162V7.27653V7.28143V7.28634V7.29125V7.29616V7.30107V7.30598V7.31089V7.3158V7.32071V7.32561V7.33052V7.33543V7.34034V7.34525V7.35016V7.35507V7.35998V7.36488V7.36979V7.3747V7.37961V7.38452V7.38943V7.39434V7.39925V7.40416V7.40906V7.41397V7.41888V7.42379V7.4287V7.43361V7.43852V7.44343V7.44833V7.45324V7.45815V7.46306V7.46797V7.47288V7.47779V7.4827V7.48761V7.49251V7.49742V7.50233V7.50724V7.51215V7.51706V7.52197V7.52688V7.53178V7.53669V7.5416V7.54651V7.55142V7.55633V7.56124V7.56615V7.57105V7.57596V7.58087V7.58578V7.59069V7.5956V7.60051V7.60542V7.61032V7.61523V7.62014V7.62505V7.62996V7.63487V7.63978V7.64469V7.6496V7.6545V7.65941V7.66432V7.66923V7.67414V7.67905V7.68396V7.68887V7.69377V7.69868V7.70359V7.7085V7.71341V7.71832V7.72323V7.72814V7.73304V7.73795V7.74286V7.74777V7.75268V7.75759V7.7625V7.76741V7.77232V7.77722V7.78213V7.78704V7.79195V7.79686V7.80177V7.80668V7.81159V7.81649V7.8214V7.82631V7.83122V7.83613V7.84104V7.84595V7.85086V7.85576V7.86067V7.86558V7.87049V7.8754V7.88031V7.88522V7.89013V7.89504V7.89994V7.90485V7.90976V7.91467V7.91958V7.92449V7.9294V7.93431V7.93921V7.94412V7.94903V7.95394V7.95885V7.96376V7.96867V7.97358V7.97849V7.98339V7.9883V7.99321V7.99812V8.00303V8.00794V8.01285V8.01776V8.02266V8.02757V8.03248V8.03739V8.0423V8.04721V8.05212V8.05703V8.06194V8.06684V8.07175V8.07666V8.08157V8.08648V8.09139V8.0963V8.10121V8.10612V8.11102V8.11593V8.12084V8.12575V8.13066V8.13557V8.14048V8.14539V8.1503V8.1552V8.16011V8.16502V8.16993V8.17484V8.17975V8.18466V8.18957V8.19448V8.19938V8.20429V8.2092V8.21411V8.21902V8.22393V8.22884V8.23375V8.23866V8.24356V8.24847V8.25338V8.25829V8.2632V8.26811V8.27302V8.27793V8.28284V8.28774V8.29265V8.29756V8.30247V8.30738V8.31229V8.3172V8.32211V8.32702V8.33193V8.33683V8.34174V8.34665V8.35156V8.35647V8.36138V8.36629V8.3712V8.37611V8.38102V8.38592V8.39083V8.39574V8.40065V8.40556V8.41047V8.41538V8.42029V8.4252V8.43011V8.43501V8.43992V8.44483V8.44974V8.45465V8.45956V8.46447V8.46938V8.47429V8.4792V8.4841V8.48901V8.49392V8.49883V8.50374V8.50865V8.51356V8.51847V8.52338V8.52829V8.5332V8.5381V8.54301V8.54792V8.55283V8.55774V8.56265V8.56756V8.57247V8.57738V8.58229V8.5872V8.59211V8.59701V8.60192V8.60683V8.61174V8.61665V8.62156V8.62647V8.63138V8.63629V8.6412V8.64611V8.65102V8.65592V8.66083V8.66574V8.67065V8.67556V8.68047V8.68538V8.69029V8.6952V8.70011V8.70502V8.70993V8.71483V8.71974V8.72465V8.72525C13.1009 8.76055 12.9395 8.78913 12.759 8.80935C12.6157 8.8254 12.4692 8.83527 12.3271 8.84032Z" fill="#F8A911" stroke="black"/>
</svg>
