<svg width="26" height="26" viewBox="0 0 26 26" fill="none" xmlns="http://www.w3.org/2000/svg">
<path d="M13 2.1665C15.9434 2.1665 16.3107 2.17734 17.4655 2.2315C18.6193 2.28567 19.4047 2.46659 20.0959 2.73525C20.8109 3.01042 21.4132 3.38309 22.0155 3.98434C22.5664 4.52589 22.9926 5.18098 23.2646 5.904C23.5322 6.59409 23.7142 7.38059 23.7684 8.53434C23.8193 9.68917 23.8334 10.0564 23.8334 12.9998C23.8334 15.9433 23.8225 16.3105 23.7684 17.4653C23.7142 18.6191 23.5322 19.4045 23.2646 20.0957C22.9934 20.8191 22.5671 21.4743 22.0155 22.0153C21.4738 22.566 20.8188 22.9922 20.0959 23.2644C19.4058 23.532 18.6193 23.714 17.4655 23.7682C16.3107 23.8191 15.9434 23.8332 13 23.8332C10.0566 23.8332 9.68935 23.8223 8.53452 23.7682C7.38077 23.714 6.59535 23.532 5.90419 23.2644C5.18087 22.993 4.52567 22.5667 3.98452 22.0153C3.43354 21.4739 3.00728 20.8188 2.73544 20.0957C2.46677 19.4056 2.28585 18.6191 2.23169 17.4653C2.18077 16.3105 2.16669 15.9433 2.16669 12.9998C2.16669 10.0564 2.17752 9.68917 2.23169 8.53434C2.28585 7.3795 2.46677 6.59517 2.73544 5.904C3.00653 5.18053 3.43289 4.52527 3.98452 3.98434C4.52583 3.43317 5.18098 3.00688 5.90419 2.73525C6.59535 2.46659 7.37969 2.28567 8.53452 2.2315C9.68935 2.18059 10.0566 2.1665 13 2.1665ZM13 7.58317C11.5634 7.58317 10.1857 8.15385 9.16986 9.16968C8.15404 10.1855 7.58335 11.5632 7.58335 12.9998C7.58335 14.4364 8.15404 15.8142 9.16986 16.83C10.1857 17.8458 11.5634 18.4165 13 18.4165C14.4366 18.4165 15.8144 17.8458 16.8302 16.83C17.846 15.8142 18.4167 14.4364 18.4167 12.9998C18.4167 11.5632 17.846 10.1855 16.8302 9.16968C15.8144 8.15385 14.4366 7.58317 13 7.58317ZM20.0417 7.31234C20.0417 6.95319 19.899 6.60875 19.6451 6.3548C19.3911 6.10084 19.0467 5.95817 18.6875 5.95817C18.3284 5.95817 17.9839 6.10084 17.73 6.3548C17.476 6.60875 17.3334 6.95319 17.3334 7.31234C17.3334 7.67148 17.476 8.01592 17.73 8.26988C17.9839 8.52383 18.3284 8.6665 18.6875 8.6665C19.0467 8.6665 19.3911 8.52383 19.6451 8.26988C19.899 8.01592 20.0417 7.67148 20.0417 7.31234ZM13 9.74984C13.862 9.74984 14.6886 10.0922 15.2981 10.7017C15.9076 11.3112 16.25 12.1379 16.25 12.9998C16.25 13.8618 15.9076 14.6884 15.2981 15.2979C14.6886 15.9074 13.862 16.2498 13 16.2498C12.1381 16.2498 11.3114 15.9074 10.7019 15.2979C10.0924 14.6884 9.75002 13.8618 9.75002 12.9998C9.75002 12.1379 10.0924 11.3112 10.7019 10.7017C11.3114 10.0922 12.1381 9.74984 13 9.74984Z" fill="#575353"/>
</svg>
