<svg width="26" height="26" viewBox="0 0 26 26" fill="none" xmlns="http://www.w3.org/2000/svg">
<path d="M7.51833 5.41677C7.51804 5.99141 7.2895 6.5424 6.88296 6.94852C6.47643 7.35465 5.92522 7.58264 5.35058 7.58236C4.77595 7.58207 4.22496 7.35352 3.81883 6.94699C3.41271 6.54046 3.18471 5.98924 3.185 5.41461C3.18529 4.83997 3.41383 4.28899 3.82037 3.88286C4.2269 3.47673 4.77811 3.24874 5.35275 3.24902C5.92738 3.24931 6.47837 3.47786 6.8845 3.88439C7.29062 4.29092 7.51862 4.84214 7.51833 5.41677ZM7.58333 9.18677H3.25V22.7501H7.58333V9.18677ZM14.43 9.18677H10.1183V22.7501H14.3867V15.6326C14.3867 11.6676 19.5542 11.2993 19.5542 15.6326V22.7501H23.8333V14.1593C23.8333 7.47511 16.185 7.72427 14.3867 11.0068L14.43 9.18677Z" fill="#575353"/>
</svg>
