<svg width="18" height="19" viewBox="0 0 18 19" fill="none" xmlns="http://www.w3.org/2000/svg">
<path d="M9.12004 8.6525C9.04504 8.645 8.95504 8.645 8.87254 8.6525C7.08754 8.5925 5.67004 7.13 5.67004 5.33C5.67004 3.4925 7.15504 2 9.00004 2C10.8375 2 12.33 3.4925 12.33 5.33C12.3225 7.13 10.905 8.5925 9.12004 8.6525Z" stroke="#F8A911" stroke-width="1.5" stroke-linecap="round" stroke-linejoin="round"/>
<path d="M5.37004 11.42C3.55504 12.635 3.55504 14.615 5.37004 15.8225C7.43254 17.2025 10.815 17.2025 12.8775 15.8225C14.6925 14.6075 14.6925 12.6275 12.8775 11.42C10.8225 10.0475 7.44004 10.0475 5.37004 11.42Z" stroke="#F8A911" stroke-width="1.5" stroke-linecap="round" stroke-linejoin="round"/>
</svg>
