<svg width="26" height="26" viewBox="0 0 26 26" fill="none" xmlns="http://www.w3.org/2000/svg">
<path d="M24.0088 6.1275C23.1818 6.49333 22.3047 6.73359 21.4067 6.84033C22.3532 6.27422 23.0617 5.38326 23.4 4.3335C22.5117 4.86216 21.5377 5.23266 20.5227 5.43308C19.8408 4.70354 18.9371 4.21971 17.9519 4.0568C16.9667 3.89389 15.9553 4.06103 15.0749 4.53224C14.1945 5.00345 13.4944 5.75232 13.0835 6.66244C12.6727 7.57256 12.574 8.59293 12.8028 9.56491C11.0014 9.47462 9.23902 9.00648 7.63022 8.19088C6.02142 7.37529 4.60213 6.23047 3.4645 4.83075C3.06181 5.5224 2.8502 6.30866 2.85133 7.109C2.85133 8.67983 3.65083 10.0676 4.86633 10.8801C4.14701 10.8574 3.44351 10.6632 2.8145 10.3135V10.3698C2.81471 11.416 3.17673 12.4299 3.83916 13.2396C4.5016 14.0494 5.42368 14.6051 6.44908 14.8126C5.78133 14.9935 5.08116 15.0202 4.40158 14.8906C4.69069 15.7911 5.25417 16.5786 6.01314 17.1429C6.7721 17.7073 7.68855 18.0201 8.63416 18.0377C7.69435 18.7758 6.61827 19.3214 5.46745 19.6433C4.31663 19.9653 3.11363 20.0573 1.92725 19.914C3.99825 21.2459 6.4091 21.953 8.87141 21.9507C17.2055 21.9507 21.7631 15.0466 21.7631 9.059C21.7631 8.864 21.7577 8.66683 21.749 8.474C22.6361 7.83285 23.4017 7.0386 24.0099 6.12858L24.0088 6.1275Z" fill="#575353"/>
</svg>
