<svg width="26" height="26" viewBox="0 0 26 26" fill="none" xmlns="http://www.w3.org/2000/svg">
<path d="M23.3382 7.03966C23.8333 8.97016 23.8333 13.0002 23.8333 13.0002C23.8333 13.0002 23.8333 17.0302 23.3382 18.9607C23.063 20.0277 22.2581 20.8673 21.2387 21.1512C19.3873 21.6668 13 21.6668 13 21.6668C13 21.6668 6.61588 21.6668 4.76121 21.1512C3.73746 20.863 2.93363 20.0245 2.66171 18.9607C2.16663 17.0302 2.16663 13.0002 2.16663 13.0002C2.16663 13.0002 2.16663 8.97016 2.66171 7.03966C2.93688 5.97258 3.74179 5.133 4.76121 4.84916C6.61588 4.3335 13 4.3335 13 4.3335C13 4.3335 19.3873 4.3335 21.2387 4.84916C22.2625 5.13733 23.0663 5.97583 23.3382 7.03966ZM10.8333 16.7918L17.3333 13.0002L10.8333 9.2085V16.7918Z" fill="#575353"/>
</svg>
